<svg xmlns="http://www.w3.org/2000/svg" xml:space="preserve" id="chatbot" x="0" y="0" style="enable-background:new 0 0 100 100;" fill="white" version="1.1" viewBox="0 0 100 100">
  <path d="M84.21,47H81v-1.07C81,36.6,73.4,29,64.07,29H51v-6.08c3.39-0.49,6-3.4,6-6.92c0-3.86-3.14-7-7-7s-7,3.14-7,7
	c0,3.52,2.61,6.43,6,6.92V29H35.93C26.6,29,19,36.6,19,45.93V47h-3.21C13.15,47,11,49.15,11,51.79v12.42c0,2.64,2.15,4.79,4.79,4.79
	H19v21c0,0.38,0.21,0.72,0.54,0.89C19.69,90.96,19.84,91,20,91c0.2,0,0.41-0.06,0.58-0.19L34.32,81h29.75c7.62,0,14.08-5.06,16.2-12
	h3.95c2.64,0,4.79-2.15,4.79-4.79V51.79C89,49.15,86.85,47,84.21,47z M45,16c0-2.76,2.24-5,5-5s5,2.24,5,5s-2.24,5-5,5
	S45,18.76,45,16z M15.79,67C14.25,67,13,65.75,13,64.21V51.79c0-1.54,1.25-2.79,2.79-2.79H19v18H15.79z M64.07,79H34
	c-0.21,0-0.41,0.07-0.58,0.19L21,88.06V68V48v-2.07C21,37.7,27.7,31,35.93,31h28.13C72.3,31,79,37.7,79,45.93V48v16.07
	C79,72.3,72.3,79,64.07,79z M87,64.21c0,1.54-1.25,2.79-2.79,2.79H81v-2.93V49h3.21c1.54,0,2.79,1.25,2.79,2.79V64.21z M45,50
	c0-3.86-3.14-7-7-7s-7,3.14-7,7s3.14,7,7,7S45,53.86,45,50z M38,55c-2.76,0-5-2.24-5-5s2.24-5,5-5s5,2.24,5,5S40.76,55,38,55z
	 M62,43c-3.86,0-7,3.14-7,7s3.14,7,7,7s7-3.14,7-7S65.86,43,62,43z M62,55c-2.76,0-5-2.24-5-5s2.24-5,5-5s5,2.24,5,5S64.76,55,62,55
	z M58.8,68c0,0.55-0.45,1-1,1H42c-0.55,0-1-0.45-1-1s0.45-1,1-1h15.8C58.35,67,58.8,67.45,58.8,68z"></path>
</svg>